<?xml version="1.0" encoding="UTF-8" standalone="no"?>
<svg xmlns:dc="http://purl.org/dc/elements/1.1/" xmlns:cc="http://creativecommons.org/ns#" xmlns:rdf="http://www.w3.org/1999/02/22-rdf-syntax-ns#" xmlns:svg="http://www.w3.org/2000/svg" xmlns="http://www.w3.org/2000/svg" xmlns:sodipodi="http://sodipodi.sourceforge.net/DTD/sodipodi-0.dtd" xmlns:inkscape="http://www.inkscape.org/namespaces/inkscape" width="339.43353mm" height="161.35245mm" viewBox="0 0 339.43353 161.35245" version="1.1" id="svg977" inkscape:version="1.0.1 (3bc2e813f5, 2020-09-07)" sodipodi:docname="messanger.svg">
  <defs id="defs971"/>
  <sodipodi:namedview id="base" pagecolor="#ffffff" bordercolor="#666666" borderopacity="1.0" inkscape:pageopacity="0.0" inkscape:pageshadow="2" inkscape:zoom="0.81584315" inkscape:cx="627.02217" inkscape:cy="295.93525" inkscape:document-units="mm" inkscape:current-layer="layer1" inkscape:document-rotation="0" showgrid="false" inkscape:window-width="1366" inkscape:window-height="704" inkscape:window-x="0" inkscape:window-y="27" inkscape:window-maximized="1"/>
  <metadata id="metadata974">
    <rdf:RDF>
      <cc:Work rdf:about="">
        <dc:format>image/svg+xml</dc:format>
        <dc:type rdf:resource="http://purl.org/dc/dcmitype/StillImage"/>
        <dc:title/>
      </cc:Work>
    </rdf:RDF>
  </metadata>
  <g inkscape:label="Слой 1" inkscape:groupmode="layer" id="layer1" transform="translate(46.62982,-16.247167)">
    <rect style="fill:none;stroke:#000000;stroke-width:1.365" id="rect1540" width="195.4744" height="125.12359" x="6.8740268" y="18.413235"/>
    <rect style="fill:none;stroke:#000000;stroke-width:1.365" id="rect1542" width="137.44032" height="84.133453" x="6.8740268" y="18.413235"/>
    <text xml:space="preserve" style="font-size:7.05556px;line-height:1.25;font-family:sans-serif;letter-spacing:0px;word-spacing:0px;stroke-width:0.264583" x="51.704552" y="59.578651" id="text1546"><tspan sodipodi:role="line" id="tspan1544" x="51.704552" y="59.578651" style="stroke-width:0.264583">TextArea</tspan></text>
    <text xml:space="preserve" style="font-size:7.05556px;line-height:1.25;font-family:sans-serif;letter-spacing:0px;word-spacing:0px;stroke-width:0.264583" x="53.017548" y="75.753548" id="text1550"><tspan sodipodi:role="line" id="tspan1548" x="53.017548" y="75.753548" style="stroke-width:0.264583">сообщения</tspan></text>
    <rect style="fill:none;stroke:#000000;stroke-width:1.365" id="rect1552" width="103.61758" height="41.340202" x="6.8740268" y="102.19662"/>
    <rect style="fill:none;stroke:#000000;stroke-width:1.365" id="rect1556" width="33.387299" height="40.873177" x="110.4916" y="102.19662"/>
    <text xml:space="preserve" style="font-size:7.05556px;line-height:1.25;font-family:sans-serif;letter-spacing:0px;word-spacing:0px;stroke-width:0.264583" x="19.368055" y="111.18191" id="text1560"><tspan sodipodi:role="line" id="tspan1558" x="19.368055" y="111.18191" style="stroke-width:0.264583">TextField</tspan><tspan sodipodi:role="line" x="19.368055" y="120.00136" style="stroke-width:0.264583" id="tspan1562">место ввода нового</tspan><tspan sodipodi:role="line" x="19.368055" y="128.8208" style="stroke-width:0.264583" id="tspan1564">сообщения</tspan></text>
    <text xml:space="preserve" style="font-size:7.05556px;line-height:1.25;font-family:sans-serif;letter-spacing:0px;word-spacing:0px;stroke-width:0.264583" x="112.26428" y="120.15703" id="text1568"><tspan sodipodi:role="line" id="tspan1566" x="112.26428" y="120.15703" style="stroke-width:0.264583">Button</tspan><tspan sodipodi:role="line" x="112.26428" y="128.97647" style="stroke-width:0.264583" id="tspan1570">Послать</tspan></text>
    <rect style="fill:none;stroke:#000000;stroke-width:1.365" id="rect1572" width="58.247658" height="11.064631" x="144.31435" y="18.413235"/>
    <text xml:space="preserve" style="font-size:7.05556px;line-height:1.25;font-family:sans-serif;letter-spacing:0px;word-spacing:0px;stroke-width:0.264583" x="144.32909" y="26.134642" id="text1576"><tspan sodipodi:role="line" id="tspan1574" x="144.32909" y="26.134642" style="stroke-width:0.264583">Label Контакты</tspan></text>
    <text xml:space="preserve" style="font-size:7.05556px;line-height:1.25;font-family:sans-serif;letter-spacing:0px;word-spacing:0px;stroke-width:0.264583" x="144.94069" y="74.521965" id="text1580" inkscape:transform-center-x="-19.954101" inkscape:transform-center-y="9.6822767"><tspan sodipodi:role="line" id="tspan1578" x="144.94069" y="74.521965" style="stroke-width:0.264583">ListView&lt;String&gt;</tspan></text>
    <text xml:space="preserve" style="font-size:7.05556px;line-height:1.25;font-family:sans-serif;letter-spacing:0px;word-spacing:0px;stroke-width:0.264583" x="154.71941" y="102.66235" id="text1584"><tspan sodipodi:role="line" id="tspan1582" x="154.71941" y="102.66235" style="stroke-width:0.264583">контакты</tspan></text>
    <path style="fill:none;stroke:#000000;stroke-width:0.264583px;stroke-linecap:butt;stroke-linejoin:miter;stroke-opacity:1" d="m 9.5915701,149.95167 c -0.9400347,1.76357 -2.2630839,2.97241 -3.6341978,4.33285 -0.7911611,0.785 -0.9547077,0.79026 -0.9133099,0.79226 2.8890256,0.13967 7.4751796,0.29944 10.0401936,0.29944 1.255458,0.14234 2.502957,0.41239 3.766373,0.42702 2.711716,0.0314 5.398767,-0.57299 8.109506,-0.65221 13.833515,-0.40428 28.248006,-1.21919 42.094451,0.223 7.66078,0.79791 15.278245,2.27275 22.987093,1.61134 1.735323,-0.14889 4.671353,0.201 5.901098,-0.11509 1.72321,-0.44293 3.451103,-1.05811 5.203093,-1.36678 1.46231,-0.25764 3.96941,-0.18244 4.57971,0.0221 0.64483,0.21606 1.58047,0.12303 1.47543,0.18913 -0.63426,0.39913 -1.15369,-1.23451 -1.42514,-1.71617 -0.86676,-1.53801 -2.6869,-2.16918 -3.56955,-3.23172" id="path1604"/>
    <path style="fill:none;stroke:#000000;stroke-width:0.264583px;stroke-linecap:butt;stroke-linejoin:miter;stroke-opacity:1" d="m 114.34532,152.30905 c -0.94259,0.88533 -1.55272,3.8656 -2.97727,4.5454 -0.27401,0.13075 -1.15649,0.36657 -0.86085,0.2975 5.84591,-1.36567 8.69444,-1.74343 14.71215,-1.99115 2.10342,-0.0866 4.23653,-0.40425 6.33459,-0.30552 1.923,0.0905 3.69138,0.64344 5.71376,0.51293 1.23409,-0.0797 3.16047,-0.5193 3.88345,-0.49606 1.49992,0.0482 2.99834,0.0889 4.49558,-0.0411 0.20408,-0.0177 0.79023,0.0202 0.60973,-0.0767 -0.88666,-0.47591 -2.36158,-0.78536 -3.3457,-1.15127 -1.56344,-0.58129 -3.219,-2.23099 -4.32912,-3.06925" id="path1606"/>
    <path style="fill:none;stroke:#000000;stroke-width:0.264583px;stroke-linecap:butt;stroke-linejoin:miter;stroke-opacity:1" d="m 151.42672,150.96829 c -0.51788,0.38873 -1.07321,0.73202 -1.55364,1.16619 -0.72204,0.65254 -1.24279,1.49855 -1.89019,2.2252 -0.50944,0.57178 -2.27983,1.70538 -1.51435,1.72769 7.92277,0.2309 15.8465,-0.51464 23.76607,-0.0547 2.74906,0.15967 5.51893,1.07941 8.29242,0.92079 1.96748,-0.11253 3.83036,-1.05837 5.79251,-1.15097 1.88808,-0.0891 3.7806,0.0294 5.67056,0 4.57789,-0.0711 9.1547,0.53091 13.71907,0.38365 1.56297,-0.0504 3.04723,-0.34668 4.63402,-0.38365 0.94859,-0.0221 1.93247,0.18196 1.88147,0.22068 -0.54081,0.41061 -9.36153,-4.7375 -11.33959,-5.0931" id="path1608"/>
    <path style="fill:none;stroke:#000000;stroke-width:0.264583px;stroke-linecap:butt;stroke-linejoin:miter;stroke-opacity:1" d="m 222.84106,21.227713 c 3.33502,-5.127881 2.30742,-6.830166 5.40645,-1.949131 0.643,1.012745 1.38381,1.894665 2.01215,2.915776 0.39495,0.641832 -0.78315,-1.288091 -1.19476,-1.91937" id="path1610"/>
    <path style="fill:none;stroke:#000000;stroke-width:0.264583px;stroke-linecap:butt;stroke-linejoin:miter;stroke-opacity:1" d="m 229.0649,20.274988 c -0.87747,0.379214 -2.02592,0.398779 -2.63241,1.137641 -0.0126,0.01537 0.12641,4.435086 0.12193,4.655336 -0.009,0.46093 0.20563,2.200568 -0.13615,2.589664 -0.21951,0.249904 -0.88116,-1.419122 -2.07792,-2.15397 -0.38652,-0.237337 -0.77772,-0.492624 -1.21528,-0.612094 -0.0878,-0.02397 -0.34359,-0.09001 -0.27066,-0.03558 2.29742,1.714855 4.62866,1.277533 6.81932,2.499546 0.27454,0.153143 0.47396,-0.420516 0.65895,-0.674688 0.3857,-0.529952 1.47531,-3.433494 1.20023,-3.652007 -0.0232,-0.01848 -0.037,0.04653 -0.0554,0.06979 -0.80419,-1.274549 -1.60838,-2.549098 -2.41257,-3.823647" id="path1612"/>
    <path style="fill:none;stroke:#000000;stroke-width:0.264583px;stroke-linecap:butt;stroke-linejoin:miter;stroke-opacity:1" d="m 224.04852,34.445696 c 0.92578,-1.373222 1.86762,-2.735752 2.77733,-4.119668 0.78595,-1.195639 -0.84066,-0.856393 2.80794,-0.06315 0.86084,0.187156 1.88258,0.898221 1.9282,0.960519" id="path1614"/>
    <path style="fill:none;stroke:#000000;stroke-width:0.264583px;stroke-linecap:butt;stroke-linejoin:miter;stroke-opacity:1" d="m 231.56199,31.223397 c -1.43329,-0.05739 -3.19138,-1.082591 -4.29985,-0.172157 -2.35256,1.93226 -1.73175,10.194777 -1.73175,13.121116 0,8.817978 0.22413,17.5318 0.52595,26.364036 0.26461,7.743452 0.41713,15.68002 1.17298,23.425382 0.27014,2.76824 0.58682,5.532853 0.97557,8.286936 0.81558,5.77796 2.43893,11.6202 2.12682,17.51194 -0.0784,1.47993 -0.27534,2.95546 -0.54876,4.41203 -0.0352,0.18755 -0.46961,0.44635 -0.48147,0.715 -0.0563,1.27513 0.30171,2.54084 0.30171,3.81721 0,2.20187 -0.6352,4.55333 -1.03654,6.71395 -0.10162,0.62664 -0.20325,1.25328 -0.30487,1.87992 0.0203,0.38365 0.1169,0.77085 0.061,1.15095 -0.0481,0.32674 -0.30397,0.59636 -0.36584,0.92078 -0.404,2.11843 -0.42646,4.55747 -0.54877,6.74581 -0.0322,0.57591 -1.04325,-0.53604 -1.44883,-0.94618 -1.21474,-1.22838 -1.51459,-2.95923 -2.34222,-4.33029 -0.41188,-0.68233 0.98494,1.25334 1.47074,1.88517 0.11554,0.15027 2.52423,4.01835 2.76809,3.75684 0.76526,-0.82064 1.57239,-1.60951 2.24954,-2.50423 2.5699,-3.39561 -1.53507,1.04039 1.09752,-2.07175 1.31229,-1.55133 3.41914,-3.05746 5.05811,-4.32072" id="path1616"/>
    <path style="fill:none;stroke:#000000;stroke-width:0.264583px;stroke-linecap:butt;stroke-linejoin:miter;stroke-opacity:1" d="m -6.2933082,104.0711 c 3.2565782,8.77796 1.6942895,-3.14372 2.8994208,-2.70021 6.9180794,2.54596 1.824245,3.28472 10.2679142,1.1758" id="path1618"/>
    <path style="fill:none;stroke:#000000;stroke-width:0.264583px;stroke-linecap:butt;stroke-linejoin:miter;stroke-opacity:1" d="m -6.2933082,104.0711 c 0.8767273,-0.0657 2.0533865,-0.86054 2.6301814,-0.19701 0.4979191,0.57279 -0.035552,3.126 -0.1219515,4.25857 -0.5956443,7.80803 -1.621186,15.6121 -2.2560232,23.44131 -0.204378,2.52052 -0.2436892,5.91043 0,8.47877 0.00731,0.077 0.3171097,1.56544 0.4268105,1.84154 0.087649,0.2206 0.359729,0.87625 0.2438929,0.66906 -0.3357452,-0.60054 -3.1130632,-6.45104 -3.5998153,-5.79172 -0.5939178,0.80449 2.8446476,4.76834 3.022174,5.0019 0.4542155,0.59757 1.0076154,1.07671 1.4633782,1.64972 0.083088,0.10446 0.083563,0.47835 0.1583428,0.36779 0.9565957,-1.41433 2.8102666,-4.2974 3.61352279,-5.71256" id="path1620"/>
    <path style="fill:none;stroke:#000000;stroke-width:0.264583px;stroke-linecap:butt;stroke-linejoin:miter;stroke-opacity:1" d="m -9.183099,22.523366 c 0.690756,-0.493477 5.958672,-5.391516 6.4395172,-5.05108 0.6890056,0.487813 2.29418688,5.649995 2.71113926,6.715244" id="path1622"/>
    <path style="fill:none;stroke:#000000;stroke-width:0.264583px;stroke-linecap:butt;stroke-linejoin:miter;stroke-opacity:1" d="m -9.183099,22.523366 c 1.8501387,0.222772 4.8173852,-1.044956 5.5504157,0.668318 1.5946902,3.727185 0.035884,8.109013 -0.060976,12.161859 -0.1409549,5.897898 -0.8959337,11.850906 -1.161805,17.753763 -0.5120301,11.368058 0.090408,22.958356 1.1571832,34.257311 0.3278616,3.472611 0.9439751,6.995768 1.0975237,10.473774 0.048188,1.091496 0.00266,2.154645 0.00266,3.247959 0,0.37154 -0.1765114,1.41319 -0.2835306,1.30332 -1.7466083,-1.79315 -1.8210019,-5.183636 -3.3820804,-7.358598 -0.4056972,-0.565235 -0.6607212,-1.215117 -1.0975334,-1.764813 -0.1272834,-0.160176 -0.5143169,-0.636379 -0.3907655,-0.473305 1.6268107,2.147178 2.904736,4.139491 3.9870871,6.654075 0.4800449,1.115271 0.7864041,2.803261 1.455401,3.747271 0.293154,0.41366 1.67497136,-3.15444 1.80684554,-3.389542 1.46103645,-2.604693 3.84792516,-4.755192 6.03640046,-5.869924" id="path1624"/>
    <text xml:space="preserve" style="font-size:7.05556px;line-height:1.25;font-family:sans-serif;letter-spacing:0px;word-spacing:0px;stroke-width:0.264583" x="243.842" y="24.139086" id="text1628"><tspan sodipodi:role="line" id="tspan1626" x="243.842" y="24.139086" style="stroke-width:0.264583">фикс. высота</tspan></text>
    <text xml:space="preserve" style="font-size:7.05556px;line-height:1.25;font-family:sans-serif;letter-spacing:0px;word-spacing:0px;stroke-width:0.264583" x="-47.015671" y="120.64198" id="text1632"><tspan sodipodi:role="line" id="tspan1630" x="-47.015671" y="120.64198" style="stroke-width:0.264583">фикс.</tspan><tspan sodipodi:role="line" x="-47.015671" y="129.46143" style="stroke-width:0.264583" id="tspan1634">высота</tspan></text>
    <text xml:space="preserve" style="font-size:7.05556px;line-height:1.25;font-family:sans-serif;letter-spacing:0px;word-spacing:0px;stroke-width:0.264583" x="114.21645" y="167.31255" id="text1638"><tspan sodipodi:role="line" x="114.21645" y="167.31255" style="stroke-width:0.264583" id="tspan1640">фикс.</tspan><tspan sodipodi:role="line" x="114.21645" y="176.13199" style="stroke-width:0.264583" id="tspan1644">ширина</tspan></text>
    <text xml:space="preserve" style="font-size:7.05556px;line-height:1.25;font-family:sans-serif;letter-spacing:0px;word-spacing:0px;stroke-width:0.264583" x="152.37" y="166.45901" id="text1648"><tspan sodipodi:role="line" id="tspan1646" x="152.37" y="166.45901" style="stroke-width:0.264583">фикс ширина</tspan></text>
  </g>
</svg>